<svg aria-hidden="true" style="position: absolute; width: 0; height: 0; overflow: hidden;" version="1.1" xmlns="http://www.w3.org/2000/svg" xmlns:xlink="http://www.w3.org/1999/xlink">
    <defs>
        <symbol id="icon-logo" viewBox="0 0 79 32">
            <path d="M9.452 3.483c0 1.207-0.043 1.656-0.164 1.686-1.083 0.269-2.603 0.875-3.308 1.32-1.594 1.004-3.035 2.677-3.76 4.367-1.012 2.358-1.067 5.834-0.132 8.319 1.068 2.837 3.513 5.027 6.516 5.84l0.848 0.229v3.769h4.062l0.037-1.918 0.036-1.917 1.080-0.363c1.517-0.509 2.434-1.089 3.646-2.306 1.193-1.198 1.79-2.128 2.311-3.598 1.211-3.424 0.651-7.372-1.441-10.134-1.136-1.502-2.644-2.573-4.567-3.247l-1.029-0.361-0.037-1.666-0.037-1.666h-4.062v1.645zM63.103 6.914c-0.048 0.048-0.088 1.111-0.088 2.363v2.275h-1.177c-1.394 0-1.449 0.052-1.449 1.35 0 1.15 0.153 1.276 1.553 1.276h1.072v3.39c0 2.709 0.042 3.53 0.208 4.089 0.579 1.95 1.783 2.69 4.61 2.832 2.115 0.106 2.194 0.060 2.245-1.3 0.024-0.644-0.019-1.095-0.115-1.211-0.108-0.13-0.471-0.187-1.22-0.192-1.369-0.010-1.898-0.194-2.242-0.78-0.248-0.423-0.272-0.715-0.312-3.643l-0.043-3.184h1.626c1.167 0 1.695-0.051 1.872-0.179 0.35-0.256 0.446-1.659 0.145-2.118-0.212-0.323-0.245-0.329-1.919-0.329h-1.703v-2.206c0-1.54-0.048-2.253-0.158-2.363-0.168-0.168-2.745-0.231-2.905-0.070zM9.452 15.23v6.697l-0.492-0.205c-1.979-0.827-3.359-2.447-3.903-4.585-0.254-0.998-0.256-2.948-0.004-3.916 0.33-1.25 0.966-2.323 1.823-3.173l0-0c0.736-0.725 1.99-1.514 2.406-1.514 0.138 0 0.171 1.294 0.171 6.697zM14.507 9.044c4.268 2.453 4.429 9.431 0.28 12.113-1.383 0.893-1.264 1.452-1.264-5.995 0-5.112 0.035-6.498 0.164-6.497 0.090 0 0.46 0.171 0.821 0.378zM40.761 11.415c-1.395 0.3-2.947 1.342-3.389 2.276-0.592 1.253-0.394 1.538 1.069 1.536 1.317-0.002 1.467-0.055 1.889-0.659 0.512-0.734 1.040-0.974 2.139-0.974 1.525 0 2.11 0.512 2.261 1.977 0.055 0.535 0.030 0.707-0.101 0.707-0.685 0-4.656 0.733-5.315 0.981-1.579 0.594-2.678 1.556-2.957 2.589-0.194 0.714-0.095 2.022 0.194 2.581 0.347 0.67 1.215 1.458 2.026 1.838 0.674 0.317 0.884 0.348 2.317 0.345 1.824-0.003 2.401-0.194 3.409-1.123l0.595-0.548 0.002 0.575c0.003 0.918 0.080 0.968 1.483 0.968 0.851 0 1.299-0.056 1.448-0.18 0.194-0.161 0.217-0.653 0.217-4.67 0-4.896-0.048-5.294-0.757-6.35-0.471-0.702-1.258-1.275-2.22-1.616-0.857-0.304-3.383-0.453-4.312-0.254zM23.526 11.71c-0.253 0.253-0.207 2.001 0.059 2.222 0.164 0.137 0.943 0.196 3.205 0.246l2.988 0.066-3.266 3.873c-2.892 3.428-3.277 3.938-3.353 4.439-0.102 0.68 0.002 1.575 0.206 1.78 0.228 0.228 10.329 0.272 10.769 0.047 0.3-0.153 0.331-0.252 0.366-1.161 0.028-0.72-0.011-1.035-0.142-1.143-0.121-0.101-1.271-0.161-3.544-0.185l-3.364-0.035 3.193-3.833c1.757-2.109 3.231-3.929 3.277-4.048 0.147-0.384 0.090-2.102-0.075-2.268-0.226-0.226-10.092-0.226-10.319 0zM51.446 11.77c-0.254 0.304-0.268 12.285-0.016 12.537 0.198 0.198 1.639 0.308 2.449 0.186 0.5-0.076 0.602-0.145 0.724-0.495 0.089-0.254 0.142-1.805 0.142-4.144 0-3.563 0.013-3.76 0.278-4.231 0.468-0.832 1.030-1.051 2.697-1.051 1.94 0 2.014-0.055 2.014-1.492 0-1.549-0.027-1.573-1.716-1.502-1.549 0.065-2.256 0.32-3.065 1.106l-0.469 0.456v-0.636c0-0.35-0.071-0.707-0.158-0.794-0.101-0.101-0.615-0.158-1.428-0.158-1.022 0-1.306 0.043-1.451 0.217zM44.767 18.946c0 0.844-0.351 1.87-0.825 2.409-0.567 0.646-1.296 0.956-2.252 0.959-1.896 0.007-2.932-1.375-1.907-2.544 0.497-0.565 1.121-0.808 2.882-1.119 2.128-0.377 2.1-0.381 2.1 0.295zM74.361 21.264c-0.415 0.168-0.953 0.877-1.048 1.381-0.103 0.544 0.237 1.308 0.744 1.679 0.443 0.323 1.425 0.345 1.887 0.043 0.45-0.295 0.855-0.971 0.855-1.428 0.002-1.269-1.274-2.145-2.439-1.674z"></path>
        </symbol>
        <symbol id="icon-hamburger" viewBox="0 0 31 32">
            <path d="M1.92 6.764c0 0.255 0.101 0.499 0.281 0.679s0.424 0.281 0.679 0.281h24.96c0.255 0 0.499-0.101 0.679-0.281s0.281-0.424 0.281-0.679-0.101-0.499-0.281-0.679c-0.18-0.18-0.424-0.281-0.679-0.281h-24.96c-0.255 0-0.499 0.101-0.679 0.281s-0.281 0.424-0.281 0.679zM6.72 14.444h21.12c0.255 0 0.499 0.101 0.679 0.281s0.281 0.424 0.281 0.679-0.101 0.499-0.281 0.679c-0.18 0.18-0.424 0.281-0.679 0.281h-21.12c-0.255 0-0.499-0.101-0.679-0.281s-0.281-0.424-0.281-0.679 0.101-0.499 0.281-0.679c0.18-0.18 0.424-0.281 0.679-0.281zM15.36 23.084h12.48c0.255 0 0.499 0.101 0.679 0.281s0.281 0.424 0.281 0.679-0.101 0.499-0.281 0.679c-0.18 0.18-0.424 0.281-0.679 0.281h-12.48c-0.255 0-0.499-0.101-0.679-0.281s-0.281-0.424-0.281-0.679 0.101-0.499 0.281-0.679c0.18-0.18 0.424-0.281 0.679-0.281z"></path>
        </symbol>
        <symbol id="icon-facebook" viewBox="0 0 32 32">
            <path d="M28.177 0.25h-23.855c-1.080 0-2.116 0.429-2.88 1.193s-1.193 1.8-1.193 2.88v23.855c0 1.080 0.429 2.116 1.193 2.88s1.8 1.193 2.88 1.193h11.685v-13.315h-2.663v-5.326h2.641v-2.407c0-2.178 1.038-5.582 5.604-5.582l4.114 0.016v4.563h-2.987c-0.486 0-1.177 0.242-1.177 1.279v2.13h4.232l-0.486 5.326h-3.952v13.314h6.844c0.535 0 1.064-0.105 1.559-0.31s0.943-0.505 1.321-0.883c0.378-0.378 0.678-0.827 0.883-1.321s0.31-1.024 0.31-1.559v-23.855c0-0.535-0.105-1.064-0.31-1.559s-0.505-0.943-0.883-1.321c-0.378-0.378-0.827-0.678-1.321-0.883s-1.024-0.31-1.559-0.31z"></path>
        </symbol>
        <symbol id="icon-behance" viewBox="0 0 32 32">
            <path d="M16.484 19.929c0-2.464-1.172-4.285-3.593-4.968 1.767-0.841 2.688-2.116 2.688-4.099 0-3.909-2.923-4.863-6.295-4.863h-9.284v19.628h9.544c3.579 0 6.94-1.711 6.94-5.699zM4.328 9.351h4.061c1.561 0 2.967 0.437 2.967 2.243 0 1.667-1.093 2.337-2.64 2.337h-4.388v-4.58zM4.327 22.295v-5.405h4.717c1.905 0 3.111 0.792 3.111 2.803 0 1.983-1.439 2.603-3.2 2.603h-4.628z"></path>
            <path d="M25.062 26c3.405 0 5.611-1.529 6.672-4.78h-3.456c-0.372 1.213-1.905 1.855-3.095 1.855-2.295 0-3.5-1.34-3.5-3.617h10.284c0.325-4.557-2.213-8.441-6.907-8.441-4.345 0-7.295 3.256-7.295 7.521 0 4.427 2.795 7.463 7.296 7.463zM24.939 13.965c1.967 0 2.956 1.152 3.121 3.036h-6.372c0.129-1.868 1.373-3.036 3.251-3.036z"></path>
            <path d="M20.889 7.031h7.984v1.933h-7.984v-1.933z"></path>
        </symbol>
        <symbol id="icon-dribbble" viewBox="0 0 32 32">
            <path d="M16 0c-8.822 0-16 7.178-16 16s7.178 16 16 16c8.822 0 16-7.178 16-16s-7.178-16-16-16zM16 30c-7.72 0-14-6.282-14-14 0-7.72 6.28-14 14-14 7.718 0 14 6.28 14 14 0 7.718-6.282 14-14 14z"></path>
            <path d="M16 4c-0.84 0-1.66 0.088-2.452 0.252 1.456 2.064 2.778 4.212 3.942 6.438 2.202-1.026 4.274-2.35 6.166-3.93-2.078-1.724-4.746-2.76-7.656-2.76z"></path>
            <path d="M25.082 8.172c-2.058 1.734-4.322 3.172-6.726 4.296 0.526 1.096 1.014 2.206 1.466 3.334 2.656-0.546 5.42-0.596 8.16-0.142-0.080-2.86-1.156-5.468-2.9-7.488z"></path>
            <path d="M11.54 4.866c-3.602 1.444-6.334 4.58-7.222 8.43 3.884 0.166 7.728-0.482 11.306-1.848-1.202-2.282-2.564-4.482-4.084-6.582z"></path>
            <path d="M16.52 13.258c-3.464 1.35-7.164 2.086-10.926 2.086-0.518 0-1.038-0.032-1.558-0.060-0.014 0.238-0.036 0.474-0.036 0.716 0 2.946 1.066 5.642 2.828 7.73 2.882-3.578 6.756-6.142 11.044-7.43-0.418-1.028-0.87-2.040-1.352-3.042z"></path>
            <path d="M20.556 17.696c0.954 2.66 1.702 5.394 2.25 8.182 2.704-1.866 4.592-4.812 5.066-8.216-2.452-0.434-4.93-0.414-7.316 0.034z"></path>
            <path d="M18.592 18.16c-4.032 1.178-7.674 3.598-10.344 6.992 2.092 1.774 4.794 2.848 7.752 2.848 1.776 0 3.458-0.396 4.974-1.090-0.55-2.988-1.35-5.912-2.382-8.75z"></path>
        </symbol>
        <symbol id="icon-linkedin" viewBox="0 0 32 32">
            <path d="M28.8 0h-25.6c-1.76 0-3.2 1.44-3.2 3.2v25.6c0 1.76 1.44 3.2 3.2 3.2h25.6c1.76 0 3.2-1.44 3.2-3.2v-25.6c0-1.76-1.44-3.2-3.2-3.2zM9.6 27.2h-4.8v-14.4h4.8v14.4zM7.2 10.080c-1.6 0-2.88-1.28-2.88-2.88s1.28-2.88 2.88-2.88c1.6 0 2.88 1.28 2.88 2.88s-1.28 2.88-2.88 2.88zM27.2 27.2h-4.8v-8.48c0-1.28-1.12-2.4-2.4-2.4s-2.4 1.12-2.4 2.4v8.48h-4.8v-14.4h4.8v1.92c0.8-1.28 2.56-2.24 4-2.24 3.040 0 5.6 2.56 5.6 5.6v9.12z"></path>
        </symbol>
        <symbol id="icon-twitter" viewBox="0 0 32 32">
            <path d="M28.768 8.064c-0.96 0.416-1.952 0.704-3.008 0.832 1.088-0.64 1.92-1.664 2.304-2.912-1.024 0.608-2.144 1.024-3.328 1.28-0.96-1.024-2.336-1.664-3.84-1.664-2.912 0-5.248 2.368-5.248 5.248 0 0.416 0.032 0.8 0.128 1.184-4.352-0.192-8.192-2.304-10.784-5.472-1.856 3.328 0.224 6.080 1.6 7.008-0.832 0-1.664-0.256-2.368-0.64 0 2.592 1.824 4.736 4.192 5.216-0.512 0.16-1.664 0.256-2.368 0.096 0.672 2.080 2.624 3.616 4.896 3.648-1.792 1.408-4.416 2.528-7.776 2.176 2.336 1.504 5.088 2.368 8.064 2.368 9.664 0 14.912-8 14.912-14.912 0-0.224 0-0.448-0.032-0.672 1.088-0.8 1.984-1.728 2.656-2.784z"></path>
        </symbol>
    </defs>
</svg>